<?xml version="1.0" encoding="utf-8"?>
<!DOCTYPE svg PUBLIC "-//W3C//DTD SVG 20010904//EN" "http://www.w3.org/TR/2001/REC-SVG-20010904/DTD/svg10.dtd">
<svg version="1.0" xmlns="http://www.w3.org/2000/svg" width="802pt" height="802pt" viewBox="0 0 802 802" style="" preserveAspectRatio="xMidYMid meet">
<g fill="#FF3131FF" stroke="#FF3131FF">
<path d="M 386.062 94.113 C 367.562 95.755 346.513 101.163 334.000 107.489 C 322.207 113.451 309.886 123.112 301.566 132.922 L 295.682 139.861 292.671 135.680 C 281.374 119.994 261.135 107.217 238.481 101.470 C 222.174 97.333 214.011 97.000 129.039 97.000 L 48.000 97.000 48.000 383.000 L 48.000 669.000 104.000 669.000 L 160.000 669.000 160.000 555.587 L 160.000 442.175 195.250 441.736 C 228.825 441.318 230.999 441.176 241.000 438.746 C 246.775 437.343 254.510 435.057 258.189 433.666 L 264.877 431.136 265.286 493.318 C 265.633 546.104 265.947 556.784 267.361 564.000 C 273.393 594.776 284.895 618.366 302.906 636.906 C 325.244 659.900 352.556 672.079 388.500 675.072 C 420.825 677.764 459.396 671.387 483.156 659.421 C 486.893 657.540 490.186 656.000 490.475 656.000 C 490.764 656.000 491.000 659.150 491.000 663.000 L 491.000 670.000 548.500 670.000 L 606.000 670.000 606.000 539.500 L 606.000 409.000 610.959 409.000 C 618.382 409.000 630.974 411.074 635.500 413.042 C 641.003 415.435 643.806 418.357 646.878 424.908 L 649.500 430.500 649.773 550.250 L 650.047 670.000 705.858 670.000 L 761.670 670.000 762.336 557.967 C 762.795 480.580 762.669 442.957 761.928 436.309 C 758.054 401.568 744.100 380.811 720.000 373.945 C 715.122 372.555 712.587 371.000 715.198 371.000 C 716.077 371.000 720.940 368.926 726.004 366.391 C 733.310 362.733 736.899 360.102 743.394 353.641 C 756.196 340.907 762.650 326.433 767.260 300.121 C 769.260 288.706 769.469 284.203 769.444 253.000 C 769.423 226.508 769.007 215.040 767.655 203.591 C 762.387 159.013 752.834 136.010 732.317 118.504 C 719.332 107.424 702.494 101.130 680.173 99.014 C 673.894 98.418 632.757 98.001 580.250 98.001 L 491.000 98.000 491.000 106.500 C 491.000 111.175 490.826 115.000 490.613 115.000 C 490.400 115.000 486.452 112.993 481.840 110.539 C 455.559 96.558 422.460 90.882 386.062 94.113 M 415.782 199.549 C 421.173 201.795 426.728 207.658 428.463 212.934 C 431.414 221.906 431.961 232.137 431.980 278.750 L 432.000 326.000 461.500 326.000 L 491.000 326.000 491.000 375.000 L 491.000 424.000 461.500 424.000 L 432.000 424.000 431.965 480.250 C 431.928 539.656 431.496 546.570 427.208 556.263 C 424.320 562.792 418.296 568.436 412.716 569.841 C 399.872 573.076 388.865 568.655 383.602 558.149 C 378.294 547.551 378.500 554.620 378.500 383.000 L 378.500 223.500 380.710 216.477 C 383.426 207.845 388.330 201.758 394.259 199.659 C 399.931 197.651 411.090 197.594 415.782 199.549 M 182.526 201.089 C 201.481 204.593 208.775 215.801 212.078 246.500 C 213.552 260.201 212.642 296.459 210.567 306.737 C 207.738 320.744 202.011 329.649 192.865 334.263 C 186.828 337.309 181.456 338.472 168.750 339.483 L 160.000 340.180 160.000 270.090 L 160.000 200.000 168.316 200.000 C 172.890 200.000 179.285 200.490 182.526 201.089 M 645.434 205.985 C 653.099 209.728 656.416 217.503 658.005 235.454 C 660.740 266.346 657.578 291.799 649.714 302.184 C 644.326 309.300 641.967 309.997 623.250 309.998 L 607.000 310.000 607.000 257.000 L 607.000 204.000 624.184 204.000 C 639.294 204.000 641.859 204.240 645.434 205.985 "/></g>
<g fill="#FF9898FF" stroke="#FF9898FF">
<path d="M 47.463 97.250 C 47.201 97.938 47.104 226.975 47.246 384.000 L 47.503 669.500 47.752 383.256 L 48.000 97.012 126.750 96.750 L 205.500 96.488 126.719 96.244 C 64.433 96.051 47.838 96.262 47.463 97.250 "/></g>
<g fill="#FFDFDFFF" stroke="#FFDFDFFF">
<path d="M 160.248 556.000 L 160.000 669.000 104.000 669.246 L 48.000 669.491 104.250 669.496 L 160.500 669.500 160.498 556.250 L 160.496 443.000 160.248 556.000 "/></g>
<g fill="#FF9898FF" stroke="#FF9898FF">
<path d="M 489.996 106.252 C 489.723 111.066 489.855 115.004 490.289 115.002 C 490.723 115.001 490.946 111.063 490.785 106.250 L 490.492 97.500 489.996 106.252 "/></g>
</svg>
